<svg width="1214" height="438" viewBox="0 0 1214 438" fill="none" xmlns="http://www.w3.org/2000/svg">
<path d="M888.05 268C886.95 257.6 885.95 246.55 885.05 234.85C884.25 223.05 883.6 211.1 883.1 199C882.6 186.9 882.2 175.25 881.9 164.05H900.95C900.85 172.85 900.7 182 900.5 191.5C900.4 201 900.25 210.3 900.05 219.4C899.95 228.5 899.9 236.95 899.9 244.75C901 241.15 902.15 237.25 903.35 233.05C904.55 228.85 905.75 224.65 906.95 220.45C908.15 216.25 909.25 212.45 910.25 209.05C911.25 205.55 912.05 202.8 912.65 200.8H927.8C928.8 205.1 930.45 211.2 932.75 219.1C935.05 227 937.45 235.55 939.95 244.75C939.95 237.05 939.85 228.65 939.65 219.55C939.55 210.45 939.45 201.15 939.35 191.65C939.25 182.05 939.15 172.85 939.05 164.05H958.1C957.7 175.35 957.25 187.05 956.75 199.15C956.25 211.25 955.65 223.15 954.95 234.85C954.25 246.55 953.35 257.6 952.25 268H935.15C932.65 261 930.15 253.4 927.65 245.2C925.25 237 922.8 229.25 920.3 221.95C918.7 226.55 917 231.55 915.2 236.95C913.5 242.25 911.8 247.6 910.1 253C908.4 258.3 906.75 263.3 905.15 268H888.05ZM970.936 268V250.9H993.736V181.15H970.936V164.05H1037.09V181.15H1014.59V250.9H1037.09V268H970.936ZM1053.37 268V164.05H1074.07V207.25C1076.57 204.05 1079.12 200.6 1081.72 196.9C1084.42 193.1 1086.97 189.25 1089.37 185.35C1091.87 181.45 1094.12 177.7 1096.12 174.1C1098.12 170.4 1099.77 167.05 1101.07 164.05H1124.47C1122.97 167.05 1121.12 170.5 1118.92 174.4C1116.72 178.2 1114.22 182.25 1111.42 186.55C1108.62 190.75 1105.62 195 1102.42 199.3C1099.22 203.6 1095.87 207.8 1092.37 211.9C1095.87 215.2 1099.37 219.05 1102.87 223.45C1106.47 227.85 1109.87 232.55 1113.07 237.55C1116.27 242.45 1119.17 247.5 1121.77 252.7C1124.37 257.9 1126.47 263 1128.07 268H1104.67C1103.47 264.1 1101.72 259.9 1099.42 255.4C1097.22 250.9 1094.67 246.45 1091.77 242.05C1088.87 237.65 1085.87 233.6 1082.77 229.9C1079.77 226.1 1076.87 222.95 1074.07 220.45V268H1053.37ZM1138.81 268V250.9H1161.61V181.15H1138.81V164.05H1204.96V181.15H1182.46V250.9H1204.96V268H1138.81Z" fill="white"/>
<line x1="798.999" y1="95.917" x2="802.999" y2="336.917" stroke="white" stroke-width="10"/>
<g filter="url(#filter0_d_208_22)">
<path d="M44.0828 407.991H42.8072C32.9664 407.991 25.3125 403.739 19.8454 395.235C13.7708 385.88 10.7335 372.82 10.7335 356.054C10.7335 342.082 13.0419 326.046 17.6585 307.943C28.5927 264.693 50.4004 221.381 83.0814 178.009C93.8941 163.551 106.59 150.309 121.169 138.281C131.01 130.384 138.846 126.436 144.677 126.436C150.266 126.436 157.495 128.015 166.364 131.174C175.354 134.211 182.036 137.006 186.41 139.557C193.092 143.445 196.433 150.552 196.433 160.879C196.433 168.654 194.306 176.976 190.054 185.845C185.802 194.592 180.396 201.335 173.835 206.073C164.237 212.998 157.13 217.919 152.514 220.834C148.018 223.75 144.799 225.208 142.855 225.208C140.79 225.208 139.635 222.292 139.393 216.461C139.028 212.694 138.117 207.956 136.659 202.246C135.687 198.845 135.14 196.475 135.019 195.139C135.019 194.653 135.444 194.228 136.294 193.863C140.425 193.013 145.528 188.579 151.602 180.56C157.191 172.177 159.985 166.163 159.985 162.519C159.985 158.874 157.92 157.052 153.789 157.052C150.023 157.173 146.743 158.631 143.948 161.425C132.042 172.845 120.258 186.695 108.595 202.975C96.9314 219.134 84.8431 239.726 72.3295 264.753C62.0027 285.893 54.8348 304.724 50.8256 321.247C47.0594 336.919 45.1762 349.372 45.1762 358.605C45.1762 369.296 47.0594 374.824 50.8256 375.189C51.433 375.189 52.1012 374.946 52.8302 374.46C60.3626 369.114 70.0212 359.759 81.8058 346.395C101.852 323.798 119.407 302.051 134.472 281.155C134.958 280.426 135.383 280.061 135.748 280.061C136.841 280.061 142.126 281.519 151.602 284.435C163.265 287.837 169.097 290.813 169.097 293.365C169.097 295.187 167.7 297.434 164.906 300.107L130.463 342.751C95.4735 385.637 66.6802 407.384 44.0828 407.991Z" fill="white"/>
</g>
<g filter="url(#filter1_d_208_22)">
<path d="M497.96 381.377H497.048C493.768 381.377 490.609 380.04 487.572 377.368C484.656 374.695 481.437 371.05 477.914 366.433C474.755 362.789 471.232 358.84 467.344 354.588C464.549 351.308 463.152 344.261 463.152 333.449C463.152 320.692 465.035 304.048 468.802 283.516C478.521 232.368 492.553 174.295 510.898 109.298C515.758 92.1676 519.767 82.509 522.926 80.3222C524.505 79.2288 526.449 78.5606 528.757 78.3176C532.038 78.0746 537.323 76.2523 544.612 72.8505C547.892 71.3926 550.079 70.6029 551.173 70.4814C552.023 70.4814 552.448 71.2104 552.448 72.6683C552.448 76.9205 550.747 86.6397 547.346 101.826C543.944 116.891 539.145 135.418 532.949 157.408C526.874 179.277 521.772 199.444 517.641 217.911C513.51 236.256 509.44 254.905 505.431 273.857C501.908 290.38 500.146 303.015 500.146 311.763C500.146 318.445 501.422 322.332 503.973 323.426C507.497 323.183 516.912 312.795 532.22 292.263C566.845 241.359 609.488 175.693 660.15 95.2656C682.869 59.1828 695.504 40.4124 698.055 38.9545C699.392 38.1041 701.153 37.4966 703.34 37.1322C708.321 36.0387 714.578 33.8519 722.11 30.5716C724.662 29.1137 726.545 28.3848 727.76 28.3848C728.732 28.3848 729.218 29.1745 729.218 30.7539L726.849 47.1552C725.391 52.7437 717.615 67.2012 703.522 90.5274C677.766 133.171 644.781 185.473 604.568 247.433C567.027 305.02 540.664 342.561 525.477 360.055C513.693 373.784 504.52 380.891 497.96 381.377Z" fill="white"/>
</g>
<g filter="url(#filter2_d_208_22)">
<path d="M204.148 325.499C202.756 325.834 200.631 325.91 197.775 325.726C194.918 325.543 191.883 325.034 188.669 324.2C185.503 323.288 182.672 322.094 180.174 320.619C177.725 319.065 176.171 317.062 175.514 314.608C174.273 308.613 174.892 301.165 177.371 292.265L177.496 291.532L177.264 290.985L175.081 291.511C171.726 292.318 169.957 292.341 169.774 291.582C169.622 290.949 170.06 289.705 171.087 287.851C171.567 287.066 172.331 285.509 173.379 283.182C175.316 278.43 176.738 275.711 177.644 275.024L181.881 272.599C182.993 271.93 185.45 265.58 189.252 253.55C189.492 253.157 189.849 252.134 190.322 250.48L190.276 250.29C188.643 251.018 187.933 251.825 188.146 252.711C188.238 253.091 188.062 253.334 187.619 253.441C186.322 253.618 182.86 253.145 177.233 252.021C170.975 250.781 167.647 249.473 167.249 248.095C167.158 247.715 167.335 247.338 167.78 246.963C175.51 240.684 184.655 235.136 195.215 230.32C207.106 224.915 217.641 221.108 226.819 218.901C238.34 216.13 244.536 216.28 245.409 219.351C245.632 220.837 245.912 222.277 246.247 223.669C246.828 225.806 247.45 227.699 248.115 229.347C248.764 230.932 249.263 232.452 249.614 233.908C250.177 236.25 249.604 237.626 247.895 238.038C245.68 238.57 240.816 237.698 233.304 235.42C232.863 235.259 232.168 235.292 231.219 235.52C229.826 235.855 228.172 236.354 226.255 237.016C223.721 237.893 220.205 239.006 215.709 240.356C212.511 241.259 211.041 242.249 211.3 243.325C211.392 243.704 211.616 244.22 211.973 244.87C212.379 245.442 212.749 246.425 213.084 247.817C213.328 248.83 213.371 250.125 213.215 251.703C213.094 252.87 212.915 253.516 212.677 253.64C212.487 253.686 212.211 253.652 211.849 253.538C211.55 253.409 211.132 253.342 210.595 253.338C210.279 253.414 209.773 254.372 209.077 256.214C208.495 257.693 208.115 258.755 207.935 259.401C207.966 259.528 208.329 259.507 209.026 259.34C210.562 258.769 211.742 258.385 212.565 258.187C213.958 257.852 215.069 258.02 215.9 258.691C216.779 259.283 217.679 260.238 218.599 261.557C220.347 263.815 222.632 266.078 225.454 268.345C226.787 269.431 227.529 270.29 227.682 270.923C227.834 271.556 226.842 272.163 224.705 272.744L222.973 273.06C219.127 274.052 215.32 275.068 211.553 276.108C207.833 277.07 204.939 278.402 202.871 280.105C200.852 281.729 199.198 284.738 197.912 289.133C196.673 293.448 195.486 299.928 194.351 308.571L194.347 308.973C194.702 309.892 195.671 310.162 197.254 309.781C198.393 309.507 199.265 309.096 199.87 308.549C207.934 300.315 213.383 294.853 216.218 292.162C218.24 290.269 219.757 289.201 220.77 288.957C221.72 288.729 222.454 289.557 222.975 291.44C224.177 296.441 225.228 299.972 226.125 302.033L226.54 303.339C226.677 303.909 226.616 304.492 226.358 305.09C225.794 306.364 222.032 310.349 215.072 317.046C210.468 321.568 206.827 324.386 204.148 325.499ZM241.389 327.489C240.882 327.611 240.427 327.252 240.024 326.411C239.558 325.586 238.659 323.659 237.328 320.631C236.416 318.507 235.845 316.97 235.617 316.021C234.444 311.147 235.003 301.638 237.292 287.494C239.503 273.302 241.657 261.1 243.754 250.886C245.914 240.657 248.116 231.857 250.361 224.487C252.59 217.054 254.275 213.2 255.414 212.926C259.312 213.261 262.684 213.086 265.533 212.401C266.293 212.218 266.903 211.971 267.363 211.659C267.69 212.183 268.297 212.339 269.183 212.125C270.133 211.897 270.721 212.258 270.95 213.207C271.178 214.157 271.758 214.62 272.69 214.596C273.306 214.649 273.849 215.657 274.321 217.619C274.595 218.758 274.931 220.988 275.327 224.308C275.788 227.612 276.194 230.695 276.548 233.556C276.886 236.354 277.017 241.077 276.942 247.724C276.867 254.371 277.174 259.822 277.862 264.075C279.197 259.603 282.168 247.873 286.774 228.886C292.417 205.298 295.08 191.734 294.764 188.194C294.706 187.672 294.813 187.144 295.086 186.61C295.423 186.06 295.844 185.724 296.351 185.603C296.604 185.542 296.88 185.576 297.179 185.705C304.849 189.752 309.351 192.185 310.686 193.002C312.272 194.027 313.186 195.046 313.43 196.058C313.658 197.008 313.513 198.215 312.995 199.678C313.071 199.995 307.516 223.529 296.33 270.28C291.9 288.889 289.073 298.71 287.848 299.741C287.465 300.101 285.935 300.837 283.257 301.95C277.801 304.602 273.965 306.194 271.75 306.727C269.724 307.214 268.06 306.978 266.758 306.019C265.456 305.06 264.402 302.903 263.595 299.548C262.087 293.282 260.981 278.381 260.275 254.847L259.99 254.915C254.369 279.704 251.626 292.383 251.763 292.953C251.809 293.143 252.132 293.232 252.732 293.222C253.38 293.133 253.75 293.278 253.841 293.658C253.902 293.911 253.867 294.322 253.736 294.889C252.834 298.655 252.189 301.823 251.803 304.393C251.301 307.594 250.679 310.021 249.938 311.672C248.813 313.952 247.855 315.956 247.066 317.686C244.041 324.039 242.148 327.306 241.389 327.489ZM331.475 297.383C331.222 297.443 330.921 297.449 330.575 297.398C327.49 296.265 323.117 295.208 317.457 294.226C317.125 294.238 316.876 293.897 316.708 293.2C316.038 290.415 316.359 282.839 317.669 270.47C318.979 258.102 320.57 247.039 322.442 237.281C324.376 227.508 326.134 219.921 327.714 214.519C327.779 214.235 327.822 213.857 327.842 213.383C326.212 213.842 321.06 216.086 312.386 220.114L307.013 222.411C306.443 222.548 305.828 222.495 305.167 222.252C303.986 221.8 300.712 219.742 295.345 216.078C292.252 214.076 290.675 212.949 290.614 212.696C290.522 212.316 291.048 211.855 292.189 211.312C293.331 210.77 294.991 209.734 297.168 208.206C303.445 203.683 317.559 196.94 339.509 187.977C350.35 183.495 358.397 180.621 363.651 179.358C366.879 178.581 368.782 178.559 369.36 179.29C369.625 181.503 369.966 184.87 370.383 189.39C370.952 196.485 370.238 200.339 368.243 200.953C367.547 201.12 366.712 200.852 365.74 200.149C365.159 199.686 364.331 199.584 363.255 199.843C362.053 200.132 360.374 200.67 358.219 201.456C357.68 201.719 355.684 202.467 352.23 203.7C348.84 204.917 347.025 205.722 346.785 206.115C346.593 206.429 346.557 206.839 346.679 207.345C346.779 208.594 346.559 210.187 346.021 212.124C339.034 235.969 334.912 260.731 333.657 286.412C333.421 289.884 333.192 292.55 332.97 294.411C332.733 296.209 332.234 297.2 331.475 297.383ZM393.474 279.958C392.082 280.293 389.957 280.369 387.101 280.185C384.244 280.002 381.209 279.493 377.995 278.659C374.83 277.747 371.998 276.553 369.5 275.078C367.051 273.524 365.498 271.521 364.84 269.067C363.599 263.072 364.218 255.624 366.698 246.724L366.823 245.991L366.591 245.444L364.407 245.97C361.052 246.777 359.283 246.8 359.101 246.041C358.948 245.408 359.386 244.164 360.413 242.31C360.894 241.525 361.658 239.968 362.705 237.641C364.642 232.889 366.064 230.17 366.97 229.483L371.208 227.058C372.319 226.389 374.776 220.039 378.578 208.009C378.819 207.616 379.175 206.593 379.648 204.939L379.602 204.749C377.969 205.477 377.259 206.284 377.473 207.17C377.564 207.55 377.388 207.793 376.945 207.9C375.649 208.077 372.187 207.604 366.559 206.48C360.302 205.24 356.974 203.932 356.575 202.554C356.484 202.174 356.661 201.797 357.106 201.422C364.837 195.143 373.982 189.595 384.541 184.779C396.433 179.374 406.967 175.567 416.146 173.36C427.666 170.589 433.862 170.739 434.735 173.81C434.959 175.296 435.238 176.736 435.573 178.128C436.154 180.265 436.777 182.158 437.441 183.806C438.09 185.391 438.59 186.911 438.94 188.367C439.503 190.709 438.93 192.085 437.221 192.497C435.006 193.029 430.142 192.157 422.63 189.879C422.19 189.718 421.495 189.751 420.545 189.979C419.152 190.314 417.498 190.813 415.581 191.475C413.047 192.352 409.532 193.465 405.035 194.815C401.837 195.718 400.368 196.708 400.627 197.784C400.718 198.164 400.942 198.679 401.3 199.329C401.705 199.901 402.075 200.884 402.41 202.276C402.654 203.289 402.698 204.584 402.541 206.162C402.42 207.329 402.241 207.975 402.003 208.099C401.813 208.145 401.537 208.111 401.175 207.997C400.876 207.868 400.458 207.801 399.921 207.797C399.605 207.873 399.099 208.831 398.403 210.673C397.822 212.152 397.441 213.214 397.262 213.86C397.292 213.987 397.656 213.966 398.352 213.799C399.889 213.228 401.069 212.844 401.891 212.646C403.284 212.311 404.396 212.479 405.227 213.15C406.106 213.742 407.005 214.697 407.925 216.016C409.673 218.274 411.959 220.537 414.781 222.804C416.113 223.89 416.856 224.749 417.008 225.382C417.16 226.015 416.168 226.622 414.031 227.203L412.299 227.519C408.453 228.511 404.646 229.527 400.879 230.567C397.159 231.529 394.266 232.861 392.198 234.564C390.178 236.188 388.525 239.197 387.238 243.592C385.999 247.907 384.812 254.387 383.677 263.03L383.674 263.432C384.029 264.351 384.997 264.621 386.58 264.24C387.719 263.966 388.591 263.555 389.196 263.008C397.26 254.774 402.709 249.312 405.544 246.621C407.566 244.728 409.084 243.66 410.096 243.416C411.046 243.188 411.781 244.016 412.301 245.9C413.504 250.9 414.554 254.431 415.451 256.492L415.866 257.798C416.003 258.368 415.943 258.951 415.685 259.549C415.121 260.823 411.358 264.808 404.398 271.505C399.794 276.027 396.153 278.845 393.474 279.958ZM430.715 281.948C430.209 282.07 429.754 281.711 429.351 280.87C428.884 280.045 427.986 278.118 426.655 275.09C425.742 272.966 425.171 271.429 424.943 270.48C423.771 265.606 424.329 256.097 426.619 241.953C428.83 227.761 430.983 215.559 433.08 205.345C435.24 195.116 437.442 186.316 439.687 178.946C441.917 171.513 443.601 167.659 444.741 167.385C448.638 167.72 452.011 167.545 454.859 166.86C455.619 166.677 456.229 166.43 456.69 166.118C457.017 166.642 457.623 166.798 458.509 166.584C459.459 166.356 460.048 166.717 460.276 167.666C460.505 168.616 461.085 169.079 462.017 169.055C462.632 169.108 463.176 170.116 463.648 172.078C463.922 173.217 464.257 175.447 464.654 178.767C465.114 182.071 465.521 185.154 465.874 188.015C466.212 190.813 466.344 195.536 466.269 202.183C466.194 208.83 466.5 214.281 467.189 218.534C468.523 214.062 471.494 202.332 476.101 183.345C481.743 159.757 484.406 146.193 484.091 142.653C484.032 142.131 484.139 141.603 484.413 141.069C484.749 140.519 485.171 140.183 485.677 140.062C485.93 140.001 486.206 140.035 486.505 140.164C494.175 144.211 498.677 146.644 500.012 147.461C501.598 148.486 502.513 149.505 502.756 150.517C502.985 151.467 502.84 152.674 502.321 154.137C502.397 154.454 496.842 177.988 485.656 224.739C481.226 243.348 478.399 253.169 477.174 254.2C476.792 254.56 475.261 255.296 472.583 256.409C467.127 259.061 463.292 260.653 461.076 261.186C459.051 261.673 457.387 261.437 456.085 260.478C454.783 259.519 453.728 257.362 452.921 254.007C451.414 247.741 450.307 232.84 449.601 209.306L449.316 209.374C443.695 234.163 440.953 246.842 441.09 247.412C441.135 247.602 441.458 247.691 442.058 247.681C442.707 247.592 443.076 247.737 443.168 248.117C443.229 248.37 443.193 248.781 443.062 249.348C442.16 253.114 441.516 256.282 441.13 258.852C440.627 262.053 440.006 264.48 439.265 266.131C438.139 268.411 437.181 270.415 436.392 272.145C433.367 278.498 431.474 281.765 430.715 281.948Z" fill="white"/>
</g>
<defs>
<filter id="filter0_d_208_22" x="0.733643" y="116.436" width="225.699" height="321.555" filterUnits="userSpaceOnUse" color-interpolation-filters="sRGB">
<feFlood flood-opacity="0" result="BackgroundImageFix"/>
<feColorMatrix in="SourceAlpha" type="matrix" values="0 0 0 0 0 0 0 0 0 0 0 0 0 0 0 0 0 0 127 0" result="hardAlpha"/>
<feOffset dx="10" dy="10"/>
<feGaussianBlur stdDeviation="10"/>
<feComposite in2="hardAlpha" operator="out"/>
<feColorMatrix type="matrix" values="0 0 0 0 1 0 0 0 0 0 0 0 0 0 0 0 0 0 1 0"/>
<feBlend mode="normal" in2="BackgroundImageFix" result="effect1_dropShadow_208_22"/>
<feBlend mode="normal" in="SourceGraphic" in2="effect1_dropShadow_208_22" result="shape"/>
</filter>
<filter id="filter1_d_208_22" x="456.152" y="21.3848" width="296.065" height="382.992" filterUnits="userSpaceOnUse" color-interpolation-filters="sRGB">
<feFlood flood-opacity="0" result="BackgroundImageFix"/>
<feColorMatrix in="SourceAlpha" type="matrix" values="0 0 0 0 0 0 0 0 0 0 0 0 0 0 0 0 0 0 127 0" result="hardAlpha"/>
<feOffset dx="8" dy="8"/>
<feGaussianBlur stdDeviation="7.5"/>
<feComposite in2="hardAlpha" operator="out"/>
<feColorMatrix type="matrix" values="0 0 0 0 1 0 0 0 0 0 0 0 0 0 0 0 0 0 1 0"/>
<feBlend mode="normal" in2="BackgroundImageFix" result="effect1_dropShadow_208_22"/>
<feBlend mode="normal" in="SourceGraphic" in2="effect1_dropShadow_208_22" result="shape"/>
</filter>
<filter id="filter2_d_208_22" x="152.599" y="136.75" width="396.102" height="225.059" filterUnits="userSpaceOnUse" color-interpolation-filters="sRGB">
<feFlood flood-opacity="0" result="BackgroundImageFix"/>
<feColorMatrix in="SourceAlpha" type="matrix" values="0 0 0 0 0 0 0 0 0 0 0 0 0 0 0 0 0 0 127 0" result="hardAlpha"/>
<feOffset dx="10" dy="10"/>
<feGaussianBlur stdDeviation="5"/>
<feComposite in2="hardAlpha" operator="out"/>
<feColorMatrix type="matrix" values="0 0 0 0 1 0 0 0 0 0 0 0 0 0 0 0 0 0 1 0"/>
<feBlend mode="normal" in2="BackgroundImageFix" result="effect1_dropShadow_208_22"/>
<feBlend mode="normal" in="SourceGraphic" in2="effect1_dropShadow_208_22" result="shape"/>
</filter>
</defs>
</svg>
