<svg width="1147" height="377" viewBox="0 0 1147 377" fill="none" xmlns="http://www.w3.org/2000/svg">
<path d="M457.13 173V96H490.46C497.353 96 503.293 97.1367 508.28 99.41C513.267 101.61 517.117 104.8 519.83 108.98C522.543 113.16 523.9 118.147 523.9 123.94C523.9 129.66 522.543 134.61 519.83 138.79C517.117 142.897 513.267 146.05 508.28 148.25C503.293 150.45 497.353 151.55 490.46 151.55H467.03L474.95 143.74V173H457.13ZM506.08 173L486.83 145.06H505.86L525.33 173H506.08ZM474.95 145.72L467.03 137.36H489.47C494.97 137.36 499.077 136.187 501.79 133.84C504.503 131.42 505.86 128.12 505.86 123.94C505.86 119.687 504.503 116.387 501.79 114.04C499.077 111.693 494.97 110.52 489.47 110.52H467.03L474.95 102.05V145.72ZM554.409 127.02H591.479V140.88H554.409V127.02ZM555.729 158.7H597.639V173H538.019V96H596.209V110.3H555.729V158.7ZM637.118 174.32C630.958 174.32 625.054 173.513 619.408 171.9C613.761 170.213 609.214 168.05 605.768 165.41L611.818 151.99C615.118 154.337 619.004 156.28 623.478 157.82C628.024 159.287 632.608 160.02 637.228 160.02C640.748 160.02 643.571 159.69 645.698 159.03C647.898 158.297 649.511 157.307 650.538 156.06C651.564 154.813 652.078 153.383 652.078 151.77C652.078 149.717 651.271 148.103 649.658 146.93C648.044 145.683 645.918 144.693 643.278 143.96C640.638 143.153 637.704 142.42 634.478 141.76C631.324 141.027 628.134 140.147 624.908 139.12C621.754 138.093 618.858 136.773 616.218 135.16C613.578 133.547 611.414 131.42 609.728 128.78C608.114 126.14 607.308 122.767 607.308 118.66C607.308 114.26 608.481 110.263 610.828 106.67C613.248 103.003 616.841 100.107 621.608 97.98C626.448 95.78 632.498 94.68 639.758 94.68C644.598 94.68 649.364 95.2667 654.058 96.44C658.751 97.54 662.894 99.2267 666.488 101.5L660.988 115.03C657.394 112.977 653.801 111.473 650.208 110.52C646.614 109.493 643.094 108.98 639.648 108.98C636.201 108.98 633.378 109.383 631.178 110.19C628.978 110.997 627.401 112.06 626.448 113.38C625.494 114.627 625.018 116.093 625.018 117.78C625.018 119.76 625.824 121.373 627.438 122.62C629.051 123.793 631.178 124.747 633.818 125.48C636.458 126.213 639.354 126.947 642.508 127.68C645.734 128.413 648.924 129.257 652.078 130.21C655.304 131.163 658.238 132.447 660.878 134.06C663.518 135.673 665.644 137.8 667.258 140.44C668.944 143.08 669.788 146.417 669.788 150.45C669.788 154.777 668.578 158.737 666.158 162.33C663.738 165.923 660.108 168.82 655.268 171.02C650.501 173.22 644.451 174.32 637.118 174.32ZM719.364 174.32C713.277 174.32 707.631 173.33 702.424 171.35C697.291 169.37 692.817 166.583 689.004 162.99C685.264 159.397 682.331 155.18 680.204 150.34C678.151 145.5 677.124 140.22 677.124 134.5C677.124 128.78 678.151 123.5 680.204 118.66C682.331 113.82 685.301 109.603 689.114 106.01C692.927 102.417 697.401 99.63 702.534 97.65C707.667 95.67 713.241 94.68 719.254 94.68C725.341 94.68 730.914 95.67 735.974 97.65C741.107 99.63 745.544 102.417 749.284 106.01C753.097 109.603 756.067 113.82 758.194 118.66C760.321 123.427 761.384 128.707 761.384 134.5C761.384 140.22 760.321 145.537 758.194 150.45C756.067 155.29 753.097 159.507 749.284 163.1C745.544 166.62 741.107 169.37 735.974 171.35C730.914 173.33 725.377 174.32 719.364 174.32ZM719.254 159.14C722.701 159.14 725.854 158.553 728.714 157.38C731.647 156.207 734.214 154.52 736.414 152.32C738.614 150.12 740.301 147.517 741.474 144.51C742.721 141.503 743.344 138.167 743.344 134.5C743.344 130.833 742.721 127.497 741.474 124.49C740.301 121.483 738.614 118.88 736.414 116.68C734.287 114.48 731.757 112.793 728.824 111.62C725.891 110.447 722.701 109.86 719.254 109.86C715.807 109.86 712.617 110.447 709.684 111.62C706.824 112.793 704.294 114.48 702.094 116.68C699.894 118.88 698.171 121.483 696.924 124.49C695.751 127.497 695.164 130.833 695.164 134.5C695.164 138.093 695.751 141.43 696.924 144.51C698.171 147.517 699.857 150.12 701.984 152.32C704.184 154.52 706.751 156.207 709.684 157.38C712.617 158.553 715.807 159.14 719.254 159.14ZM808.986 174.32C798.06 174.32 789.516 171.277 783.356 165.19C777.196 159.103 774.116 150.413 774.116 139.12V96H791.936V138.46C791.936 145.793 793.44 151.073 796.446 154.3C799.453 157.527 803.67 159.14 809.096 159.14C814.523 159.14 818.74 157.527 821.746 154.3C824.753 151.073 826.256 145.793 826.256 138.46V96H843.856V139.12C843.856 150.413 840.776 159.103 834.616 165.19C828.456 171.277 819.913 174.32 808.986 174.32ZM861.466 173V96H894.796C901.689 96 907.629 97.1367 912.616 99.41C917.603 101.61 921.453 104.8 924.166 108.98C926.879 113.16 928.236 118.147 928.236 123.94C928.236 129.66 926.879 134.61 924.166 138.79C921.453 142.897 917.603 146.05 912.616 148.25C907.629 150.45 901.689 151.55 894.796 151.55H871.366L879.286 143.74V173H861.466ZM910.416 173L891.166 145.06H910.196L929.666 173H910.416ZM879.286 145.72L871.366 137.36H893.806C899.306 137.36 903.413 136.187 906.126 133.84C908.839 131.42 910.196 128.12 910.196 123.94C910.196 119.687 908.839 116.387 906.126 114.04C903.413 111.693 899.306 110.52 893.806 110.52H871.366L879.286 102.05V145.72ZM979.205 174.32C973.265 174.32 967.728 173.367 962.595 171.46C957.535 169.48 953.135 166.693 949.395 163.1C945.655 159.507 942.721 155.29 940.595 150.45C938.541 145.61 937.515 140.293 937.515 134.5C937.515 128.707 938.541 123.39 940.595 118.55C942.721 113.71 945.655 109.493 949.395 105.9C953.208 102.307 957.645 99.5567 962.705 97.65C967.765 95.67 973.301 94.68 979.315 94.68C985.988 94.68 992.001 95.8533 997.355 98.2C1002.78 100.473 1007.33 103.847 1010.99 108.32L999.555 118.88C996.915 115.873 993.981 113.637 990.755 112.17C987.528 110.63 984.008 109.86 980.195 109.86C976.601 109.86 973.301 110.447 970.295 111.62C967.288 112.793 964.685 114.48 962.485 116.68C960.285 118.88 958.561 121.483 957.315 124.49C956.141 127.497 955.555 130.833 955.555 134.5C955.555 138.167 956.141 141.503 957.315 144.51C958.561 147.517 960.285 150.12 962.485 152.32C964.685 154.52 967.288 156.207 970.295 157.38C973.301 158.553 976.601 159.14 980.195 159.14C984.008 159.14 987.528 158.407 990.755 156.94C993.981 155.4 996.915 153.09 999.555 150.01L1010.99 160.57C1007.33 165.043 1002.78 168.453 997.355 170.8C992.001 173.147 985.951 174.32 979.205 174.32ZM1039.42 127.02H1076.49V140.88H1039.42V127.02ZM1040.74 158.7H1082.65V173H1023.03V96H1081.22V110.3H1040.74V158.7ZM475.61 283L450.42 206H468.9L490.79 274.2H481.55L504.43 206H520.93L542.93 274.2H534.02L556.46 206H573.51L548.32 283H529.18L509.71 223.16H514.77L494.75 283H475.61ZM583.458 283V206H601.278V283H583.458ZM635.502 265.4L634.512 244.83L671.362 206H691.162L657.942 241.75L648.042 252.31L635.502 265.4ZM619.552 283V206H637.262V283H619.552ZM672.242 283L644.852 249.45L656.512 236.8L693.032 283H672.242ZM700.978 283V206H718.798V283H700.978Z" fill="white"/>
<rect width="378" height="377" rx="90" fill="white"/>
<g filter="url(#filter0_d_230_17)">
<mask id="path-3-outside-1_230_17" maskUnits="userSpaceOnUse" x="84" y="58.8651" width="199" height="258" fill="black">
<rect fill="white" x="84" y="58.8651" width="199" height="258"/>
<path d="M117.419 306.261H116.809C114.611 306.261 112.495 305.365 110.461 303.575C108.508 301.785 106.351 299.343 103.991 296.251C101.875 293.809 99.5153 291.165 96.9111 288.316C95.0394 286.119 94.1035 281.399 94.1035 274.156C94.1035 265.611 95.3649 254.462 97.8877 240.709C104.398 206.448 113.798 167.548 126.086 124.01C129.341 112.535 132.027 106.065 134.143 104.6C135.201 103.868 136.503 103.42 138.049 103.258C140.246 103.095 143.786 101.874 148.669 99.5955C150.866 98.619 152.331 98.09 153.063 98.0086C153.633 98.0086 153.918 98.4969 153.918 99.4734C153.918 102.322 152.779 108.832 150.5 119.005C148.221 129.096 145.007 141.506 140.856 156.236C136.787 170.885 133.369 184.394 130.603 196.763C127.836 209.052 125.109 221.544 122.424 234.239C120.064 245.307 118.884 253.77 118.884 259.63C118.884 264.106 119.738 266.71 121.447 267.442C123.807 267.279 130.114 260.321 140.368 246.568C163.562 212.47 192.126 168.484 226.062 114.61C241.28 90.4402 249.743 77.867 251.452 76.8904C252.347 76.3208 253.527 75.9139 254.992 75.6697C258.329 74.9373 262.52 73.4725 267.565 71.2752C269.274 70.2986 270.536 69.8104 271.35 69.8104C272.001 69.8104 272.326 70.3393 272.326 71.3973L270.739 82.3836C269.763 86.1271 264.554 95.8113 255.114 111.436C237.862 140.001 215.767 175.035 188.83 216.539C163.684 255.113 146.024 280.26 135.852 291.978C127.958 301.174 121.813 305.935 117.419 306.261Z"/>
</mask>
<path d="M117.419 306.261H116.809C114.611 306.261 112.495 305.365 110.461 303.575C108.508 301.785 106.351 299.343 103.991 296.251C101.875 293.809 99.5153 291.165 96.9111 288.316C95.0394 286.119 94.1035 281.399 94.1035 274.156C94.1035 265.611 95.3649 254.462 97.8877 240.709C104.398 206.448 113.798 167.548 126.086 124.01C129.341 112.535 132.027 106.065 134.143 104.6C135.201 103.868 136.503 103.42 138.049 103.258C140.246 103.095 143.786 101.874 148.669 99.5955C150.866 98.619 152.331 98.09 153.063 98.0086C153.633 98.0086 153.918 98.4969 153.918 99.4734C153.918 102.322 152.779 108.832 150.5 119.005C148.221 129.096 145.007 141.506 140.856 156.236C136.787 170.885 133.369 184.394 130.603 196.763C127.836 209.052 125.109 221.544 122.424 234.239C120.064 245.307 118.884 253.77 118.884 259.63C118.884 264.106 119.738 266.71 121.447 267.442C123.807 267.279 130.114 260.321 140.368 246.568C163.562 212.47 192.126 168.484 226.062 114.61C241.28 90.4402 249.743 77.867 251.452 76.8904C252.347 76.3208 253.527 75.9139 254.992 75.6697C258.329 74.9373 262.52 73.4725 267.565 71.2752C269.274 70.2986 270.536 69.8104 271.35 69.8104C272.001 69.8104 272.326 70.3393 272.326 71.3973L270.739 82.3836C269.763 86.1271 264.554 95.8113 255.114 111.436C237.862 140.001 215.767 175.035 188.83 216.539C163.684 255.113 146.024 280.26 135.852 291.978C127.958 301.174 121.813 305.935 117.419 306.261Z" fill="white"/>
<path d="M117.419 306.261V316.261H117.789L118.158 316.233L117.419 306.261ZM110.461 303.575L103.704 310.947L103.778 311.015L103.855 311.082L110.461 303.575ZM103.991 296.251L111.941 290.184L111.752 289.937L111.548 289.701L103.991 296.251ZM96.9111 288.316L89.2987 294.801L89.4125 294.934L89.5308 295.064L96.9111 288.316ZM97.8877 240.709L88.0635 238.842L88.0575 238.873L88.0518 238.905L97.8877 240.709ZM126.086 124.01L116.466 121.28L116.462 121.293L126.086 124.01ZM134.143 104.6L128.45 96.3785V96.3785L134.143 104.6ZM138.049 103.258L137.31 93.285L137.156 93.2964L137.002 93.3126L138.049 103.258ZM148.669 99.5955L144.608 90.4574L144.523 90.4948L144.44 90.5337L148.669 99.5955ZM153.063 98.0086V88.0086H152.51L151.959 88.0698L153.063 98.0086ZM150.5 119.005L160.254 121.207L160.256 121.199L160.258 121.191L150.5 119.005ZM140.856 156.236L131.231 153.524L131.226 153.542L131.221 153.56L140.856 156.236ZM130.603 196.763L140.358 198.96L140.361 198.946L130.603 196.763ZM122.424 234.239L132.204 236.325L132.206 236.317L132.207 236.309L122.424 234.239ZM121.447 267.442L117.508 276.634L119.727 277.585L122.135 277.419L121.447 267.442ZM140.368 246.568L148.385 252.545L148.515 252.372L148.637 252.192L140.368 246.568ZM226.062 114.61L234.523 119.94L234.524 119.938L226.062 114.61ZM251.452 76.8904L256.414 85.5729L256.62 85.4548L256.821 85.3271L251.452 76.8904ZM254.992 75.6697L256.636 85.5337L256.887 85.4918L257.136 85.4372L254.992 75.6697ZM267.565 71.2752L271.558 80.4436L272.056 80.2269L272.527 79.9576L267.565 71.2752ZM272.326 71.3973L282.223 72.8269L282.326 72.1158V71.3973H272.326ZM270.739 82.3836L280.415 84.9078L280.557 84.3667L280.637 83.8132L270.739 82.3836ZM255.114 111.436L246.555 106.265L246.554 106.266L255.114 111.436ZM188.83 216.539L197.207 222L197.213 221.991L197.218 221.983L188.83 216.539ZM135.852 291.978L128.3 285.423L128.282 285.444L128.264 285.465L135.852 291.978ZM117.419 296.261H116.809V316.261H117.419V296.261ZM116.809 296.261C116.944 296.261 117.08 296.275 117.208 296.301C117.335 296.328 117.424 296.36 117.47 296.38C117.56 296.418 117.419 296.378 117.067 296.068L103.855 311.082C107.271 314.089 111.647 316.261 116.809 316.261V296.261ZM117.218 296.203C115.851 294.95 114.092 293.003 111.941 290.184L96.0417 302.318C98.6102 305.683 101.165 308.62 103.704 310.947L117.218 296.203ZM111.548 289.701C109.364 287.182 106.944 284.47 104.291 281.569L89.5308 295.064C92.0863 297.859 94.3862 300.437 96.4343 302.8L111.548 289.701ZM104.524 281.832C105.204 282.631 104.946 282.856 104.614 281.183C104.32 279.698 104.104 277.416 104.104 274.156H84.1035C84.1035 278.139 84.3551 281.839 84.9964 285.073C85.6006 288.12 86.7463 291.805 89.2987 294.801L104.524 281.832ZM104.104 274.156C104.104 266.475 105.251 255.995 107.724 242.513L88.0518 238.905C85.4793 252.929 84.1035 264.748 84.1035 274.156H104.104ZM107.712 242.576C114.155 208.67 123.479 170.061 135.71 126.726L116.462 121.293C104.116 165.035 94.6414 204.226 88.0635 238.842L107.712 242.576ZM135.706 126.739C137.29 121.156 138.652 117.096 139.777 114.385C140.343 113.023 140.76 112.219 141.004 111.815C141.368 111.214 141.05 111.981 139.835 112.822L128.45 96.3785C126.177 97.9526 124.73 100.077 123.893 101.46C122.937 103.04 122.083 104.845 121.306 106.718C119.745 110.476 118.137 115.389 116.466 121.28L135.706 126.739ZM139.835 112.822C139.559 113.013 139.318 113.119 139.163 113.172C139.016 113.223 138.979 113.215 139.096 113.203L137.002 93.3126C134.133 93.6146 131.148 94.5111 128.45 96.3785L139.835 112.822ZM138.788 113.23C143.013 112.917 148.056 110.917 152.898 108.657L144.44 90.5337C142.19 91.5835 140.424 92.3069 139.092 92.7663C137.654 93.2622 137.157 93.2963 137.31 93.285L138.788 113.23ZM152.73 108.734C153.714 108.296 154.39 108.024 154.812 107.872C155.02 107.797 155.091 107.778 155.053 107.789C155.03 107.795 154.949 107.817 154.82 107.844C154.697 107.87 154.471 107.914 154.168 107.947L151.959 88.0698C150.347 88.2489 148.862 88.7566 148.019 89.0608C146.976 89.4375 145.821 89.918 144.608 90.4574L152.73 108.734ZM153.063 108.009C151.743 108.009 150.104 107.713 148.476 106.783C146.844 105.85 145.746 104.579 145.067 103.414C143.883 101.384 143.918 99.6299 143.918 99.4734H163.918C163.918 98.3404 163.811 95.8534 162.342 93.3361C160.39 89.9904 156.871 88.0086 153.063 88.0086V108.009ZM143.918 99.4734C143.918 100.982 143.097 106.304 140.742 116.819L160.258 121.191C162.46 111.361 163.918 103.661 163.918 99.4734H143.918ZM140.746 116.802C138.519 126.663 135.354 138.891 131.231 153.524L150.482 158.948C154.659 144.121 157.924 131.529 160.254 121.207L140.746 116.802ZM131.221 153.56C127.115 168.341 123.654 182.017 120.844 194.581L140.361 198.946C143.085 186.771 146.459 173.429 150.492 158.913L131.221 153.56ZM120.847 194.567C118.07 206.899 115.335 219.433 112.64 232.169L132.207 236.309C134.884 223.654 137.601 211.205 140.358 198.96L120.847 194.567ZM112.644 232.154C110.246 243.398 108.884 252.692 108.884 259.63H128.884C128.884 254.849 129.882 247.215 132.204 236.325L112.644 232.154ZM108.884 259.63C108.884 262.346 109.123 265.316 110.023 268.057C110.915 270.775 112.964 274.686 117.508 276.634L125.386 258.251C128.222 259.466 128.989 261.709 129.026 261.822C129.068 261.949 129.022 261.853 128.972 261.437C128.923 261.035 128.884 260.444 128.884 259.63H108.884ZM122.135 277.419C124.528 277.254 126.379 276.358 127.378 275.802C128.502 275.177 129.492 274.441 130.306 273.773C131.934 272.435 133.639 270.713 135.357 268.818C138.832 264.984 143.196 259.506 148.385 252.545L132.351 240.591C127.287 247.384 123.37 252.261 120.538 255.386C119.103 256.969 118.147 257.877 117.609 258.319C117.339 258.541 117.369 258.483 117.656 258.324C117.819 258.233 118.957 257.59 120.759 257.466L122.135 277.419ZM148.637 252.192C171.921 217.96 200.554 173.866 234.523 119.94L217.6 109.28C183.698 163.102 155.202 206.98 132.1 240.944L148.637 252.192ZM234.524 119.938C242.117 107.879 247.973 98.7952 252.118 92.6369C254.2 89.544 255.783 87.2907 256.901 85.8011C257.468 85.0458 257.827 84.6055 258.014 84.3923C258.523 83.8126 257.844 84.7556 256.414 85.5729L246.491 68.208C244.633 69.2694 243.316 70.819 242.975 71.2082C242.312 71.964 241.611 72.855 240.907 73.7934C239.482 75.6912 237.677 78.275 235.527 81.4687C231.209 87.8836 225.224 97.1719 217.599 109.282L234.524 119.938ZM256.821 85.3271C256.504 85.5287 256.293 85.6034 256.268 85.6118C256.244 85.62 256.353 85.5809 256.636 85.5337L253.348 65.8058C251.051 66.1887 248.468 66.9362 246.083 68.4538L256.821 85.3271ZM257.136 85.4372C261.371 84.5076 266.231 82.7636 271.558 80.4436L263.573 62.1069C258.809 64.1813 255.287 65.367 252.848 65.9023L257.136 85.4372ZM272.527 79.9576C272.809 79.7962 273.027 79.6814 273.186 79.603C273.348 79.5231 273.417 79.4969 273.403 79.5023C273.397 79.5047 273.236 79.5679 272.946 79.6361C272.671 79.7006 272.112 79.8104 271.35 79.8104V59.8104C269.157 59.8104 267.305 60.4165 266.183 60.8509C264.929 61.3363 263.716 61.9575 262.604 62.5928L272.527 79.9576ZM271.35 79.8104C270.137 79.8104 268.588 79.555 267.014 78.7025C265.419 77.8384 264.291 76.6275 263.565 75.4481C262.294 73.3824 262.326 71.569 262.326 71.3973H282.326C282.326 70.1676 282.195 67.5608 280.599 64.9661C278.512 61.5751 274.945 59.8104 271.35 59.8104V79.8104ZM262.429 69.9677L260.842 80.954L280.637 83.8132L282.223 72.8269L262.429 69.9677ZM261.063 79.8594C261.071 79.8283 261.026 80.0014 260.855 80.4397C260.693 80.8571 260.457 81.4119 260.131 82.1215C259.474 83.5466 258.54 85.4001 257.294 87.7178C254.803 92.3491 251.237 98.5158 246.555 106.265L263.673 116.607C268.432 108.732 272.19 102.244 274.908 97.191C277.437 92.4885 279.579 88.1151 280.415 84.9078L261.063 79.8594ZM246.554 106.266C229.377 134.706 207.345 169.643 180.442 211.095L197.218 221.983C224.189 180.427 246.346 145.296 263.674 116.606L246.554 106.266ZM180.453 211.078C155.246 249.744 137.948 274.308 128.3 285.423L143.403 298.534C154.1 286.211 172.121 260.482 197.207 222L180.453 211.078ZM128.264 285.465C124.542 289.801 121.528 292.736 119.198 294.541C116.64 296.523 115.924 296.344 116.68 296.288L118.158 316.233C123.308 315.852 127.862 313.129 131.448 310.351C135.262 307.395 139.268 303.352 143.439 298.492L128.264 285.465Z" fill="black" mask="url(#path-3-outside-1_230_17)"/>
</g>
<defs>
<filter id="filter0_d_230_17" x="84.1035" y="59.8104" width="208.223" height="266.45" filterUnits="userSpaceOnUse" color-interpolation-filters="sRGB">
<feFlood flood-opacity="0" result="BackgroundImageFix"/>
<feColorMatrix in="SourceAlpha" type="matrix" values="0 0 0 0 0 0 0 0 0 0 0 0 0 0 0 0 0 0 127 0" result="hardAlpha"/>
<feOffset dx="8" dy="8"/>
<feGaussianBlur stdDeviation="1"/>
<feComposite in2="hardAlpha" operator="out"/>
<feColorMatrix type="matrix" values="0 0 0 0 1 0 0 0 0 0 0 0 0 0 0 0 0 0 1 0"/>
<feBlend mode="normal" in2="BackgroundImageFix" result="effect1_dropShadow_230_17"/>
<feBlend mode="normal" in="SourceGraphic" in2="effect1_dropShadow_230_17" result="shape"/>
</filter>
</defs>
</svg>
