<svg width="1088" height="377" viewBox="0 0 1088 377" fill="none" xmlns="http://www.w3.org/2000/svg">
<path d="M458.13 157V80H491.46C498.353 80 504.293 81.1367 509.28 83.41C514.267 85.61 518.117 88.8 520.83 92.98C523.543 97.16 524.9 102.147 524.9 107.94C524.9 113.66 523.543 118.61 520.83 122.79C518.117 126.97 514.267 130.197 509.28 132.47C504.293 134.67 498.353 135.77 491.46 135.77H468.03L475.95 127.74V157H458.13ZM475.95 129.72L468.03 121.25H490.47C495.97 121.25 500.077 120.077 502.79 117.73C505.503 115.383 506.86 112.12 506.86 107.94C506.86 103.687 505.503 100.387 502.79 98.04C500.077 95.6933 495.97 94.52 490.47 94.52H468.03L475.95 86.05V129.72ZM554.012 111.02H591.082V124.88H554.012V111.02ZM555.332 142.7H597.242V157H537.622V80H595.812V94.3H555.332V142.7ZM611.421 157V80H644.751C651.644 80 657.584 81.1367 662.571 83.41C667.558 85.61 671.408 88.8 674.121 92.98C676.834 97.16 678.191 102.147 678.191 107.94C678.191 113.66 676.834 118.61 674.121 122.79C671.408 126.897 667.558 130.05 662.571 132.25C657.584 134.45 651.644 135.55 644.751 135.55H621.321L629.241 127.74V157H611.421ZM660.371 157L641.121 129.06H660.151L679.621 157H660.371ZM629.241 129.72L621.321 121.36H643.761C649.261 121.36 653.368 120.187 656.081 117.84C658.794 115.42 660.151 112.12 660.151 107.94C660.151 103.687 658.794 100.387 656.081 98.04C653.368 95.6933 649.261 94.52 643.761 94.52H621.321L629.241 86.05V129.72ZM717.61 158.32C711.45 158.32 705.546 157.513 699.9 155.9C694.253 154.213 689.706 152.05 686.26 149.41L692.31 135.99C695.61 138.337 699.496 140.28 703.97 141.82C708.516 143.287 713.1 144.02 717.72 144.02C721.24 144.02 724.063 143.69 726.19 143.03C728.39 142.297 730.003 141.307 731.03 140.06C732.056 138.813 732.57 137.383 732.57 135.77C732.57 133.717 731.763 132.103 730.15 130.93C728.536 129.683 726.41 128.693 723.77 127.96C721.13 127.153 718.196 126.42 714.97 125.76C711.816 125.027 708.626 124.147 705.4 123.12C702.246 122.093 699.35 120.773 696.71 119.16C694.07 117.547 691.906 115.42 690.22 112.78C688.606 110.14 687.8 106.767 687.8 102.66C687.8 98.26 688.973 94.2633 691.32 90.67C693.74 87.0033 697.333 84.1067 702.1 81.98C706.94 79.78 712.99 78.68 720.25 78.68C725.09 78.68 729.856 79.2667 734.55 80.44C739.243 81.54 743.386 83.2267 746.98 85.5L741.48 99.03C737.886 96.9767 734.293 95.4733 730.7 94.52C727.106 93.4933 723.586 92.98 720.14 92.98C716.693 92.98 713.87 93.3833 711.67 94.19C709.47 94.9967 707.893 96.06 706.94 97.38C705.986 98.6267 705.51 100.093 705.51 101.78C705.51 103.76 706.316 105.373 707.93 106.62C709.543 107.793 711.67 108.747 714.31 109.48C716.95 110.213 719.846 110.947 723 111.68C726.226 112.413 729.416 113.257 732.57 114.21C735.796 115.163 738.73 116.447 741.37 118.06C744.01 119.673 746.136 121.8 747.75 124.44C749.436 127.08 750.28 130.417 750.28 134.45C750.28 138.777 749.07 142.737 746.65 146.33C744.23 149.923 740.6 152.82 735.76 155.02C730.993 157.22 724.943 158.32 717.61 158.32ZM799.856 158.32C793.77 158.32 788.123 157.33 782.916 155.35C777.783 153.37 773.31 150.583 769.496 146.99C765.756 143.397 762.823 139.18 760.696 134.34C758.643 129.5 757.616 124.22 757.616 118.5C757.616 112.78 758.643 107.5 760.696 102.66C762.823 97.82 765.793 93.6033 769.606 90.01C773.42 86.4167 777.893 83.63 783.026 81.65C788.16 79.67 793.733 78.68 799.746 78.68C805.833 78.68 811.406 79.67 816.466 81.65C821.6 83.63 826.036 86.4167 829.776 90.01C833.59 93.6033 836.56 97.82 838.686 102.66C840.813 107.427 841.876 112.707 841.876 118.5C841.876 124.22 840.813 129.537 838.686 134.45C836.56 139.29 833.59 143.507 829.776 147.1C826.036 150.62 821.6 153.37 816.466 155.35C811.406 157.33 805.87 158.32 799.856 158.32ZM799.746 143.14C803.193 143.14 806.346 142.553 809.206 141.38C812.14 140.207 814.706 138.52 816.906 136.32C819.106 134.12 820.793 131.517 821.966 128.51C823.213 125.503 823.836 122.167 823.836 118.5C823.836 114.833 823.213 111.497 821.966 108.49C820.793 105.483 819.106 102.88 816.906 100.68C814.78 98.48 812.25 96.7933 809.316 95.62C806.383 94.4467 803.193 93.86 799.746 93.86C796.3 93.86 793.11 94.4467 790.176 95.62C787.316 96.7933 784.786 98.48 782.586 100.68C780.386 102.88 778.663 105.483 777.416 108.49C776.243 111.497 775.656 114.833 775.656 118.5C775.656 122.093 776.243 125.43 777.416 128.51C778.663 131.517 780.35 134.12 782.476 136.32C784.676 138.52 787.243 140.207 790.176 141.38C793.11 142.553 796.3 143.14 799.746 143.14ZM855.269 157V80H870.009L915.439 135.44H908.289V80H925.889V157H911.259L865.719 101.56H872.869V157H855.269ZM933.987 157L968.307 80H985.907L1020.34 157H1001.64L973.477 89.02H980.517L952.247 157H933.987ZM951.147 140.5L955.877 126.97H995.477L1000.32 140.5H951.147ZM1028.33 157V80H1046.15V142.48H1084.76V157H1028.33ZM476.61 291L451.42 214H469.9L491.79 282.2H482.55L505.43 214H521.93L543.93 282.2H535.02L557.46 214H574.51L549.32 291H530.18L510.71 231.16H515.77L495.75 291H476.61ZM584.458 291V214H602.278V291H584.458ZM636.502 273.4L635.512 252.83L672.362 214H692.162L658.942 249.75L649.042 260.31L636.502 273.4ZM620.552 291V214H638.262V291H620.552ZM673.242 291L645.852 257.45L657.512 244.8L694.032 291H673.242ZM701.978 291V214H719.798V291H701.978Z" fill="white"/>
<rect width="378" height="377" rx="90" fill="white"/>
<g filter="url(#filter0_d_230_17)">
<mask id="path-3-outside-1_230_17" maskUnits="userSpaceOnUse" x="84" y="58.8651" width="199" height="258" fill="black">
<rect fill="white" x="84" y="58.8651" width="199" height="258"/>
<path d="M117.419 306.261H116.809C114.611 306.261 112.495 305.365 110.461 303.575C108.508 301.785 106.351 299.343 103.991 296.251C101.875 293.809 99.5153 291.165 96.9111 288.316C95.0394 286.119 94.1035 281.399 94.1035 274.156C94.1035 265.611 95.3649 254.462 97.8877 240.709C104.398 206.448 113.798 167.548 126.086 124.01C129.341 112.535 132.027 106.065 134.143 104.6C135.201 103.868 136.503 103.42 138.049 103.258C140.246 103.095 143.786 101.874 148.669 99.5955C150.866 98.619 152.331 98.09 153.063 98.0086C153.633 98.0086 153.918 98.4969 153.918 99.4734C153.918 102.322 152.779 108.832 150.5 119.005C148.221 129.096 145.007 141.506 140.856 156.236C136.787 170.885 133.369 184.394 130.603 196.763C127.836 209.052 125.109 221.544 122.424 234.239C120.064 245.307 118.884 253.77 118.884 259.63C118.884 264.106 119.738 266.71 121.447 267.442C123.807 267.279 130.114 260.321 140.368 246.568C163.562 212.47 192.126 168.484 226.062 114.61C241.28 90.4402 249.743 77.867 251.452 76.8904C252.347 76.3208 253.527 75.9139 254.992 75.6697C258.329 74.9373 262.52 73.4725 267.565 71.2752C269.274 70.2986 270.536 69.8104 271.35 69.8104C272.001 69.8104 272.326 70.3393 272.326 71.3973L270.739 82.3836C269.763 86.1271 264.554 95.8113 255.114 111.436C237.862 140.001 215.767 175.035 188.83 216.539C163.684 255.113 146.024 280.26 135.852 291.978C127.958 301.174 121.813 305.935 117.419 306.261Z"/>
</mask>
<path d="M117.419 306.261H116.809C114.611 306.261 112.495 305.365 110.461 303.575C108.508 301.785 106.351 299.343 103.991 296.251C101.875 293.809 99.5153 291.165 96.9111 288.316C95.0394 286.119 94.1035 281.399 94.1035 274.156C94.1035 265.611 95.3649 254.462 97.8877 240.709C104.398 206.448 113.798 167.548 126.086 124.01C129.341 112.535 132.027 106.065 134.143 104.6C135.201 103.868 136.503 103.42 138.049 103.258C140.246 103.095 143.786 101.874 148.669 99.5955C150.866 98.619 152.331 98.09 153.063 98.0086C153.633 98.0086 153.918 98.4969 153.918 99.4734C153.918 102.322 152.779 108.832 150.5 119.005C148.221 129.096 145.007 141.506 140.856 156.236C136.787 170.885 133.369 184.394 130.603 196.763C127.836 209.052 125.109 221.544 122.424 234.239C120.064 245.307 118.884 253.77 118.884 259.63C118.884 264.106 119.738 266.71 121.447 267.442C123.807 267.279 130.114 260.321 140.368 246.568C163.562 212.47 192.126 168.484 226.062 114.61C241.28 90.4402 249.743 77.867 251.452 76.8904C252.347 76.3208 253.527 75.9139 254.992 75.6697C258.329 74.9373 262.52 73.4725 267.565 71.2752C269.274 70.2986 270.536 69.8104 271.35 69.8104C272.001 69.8104 272.326 70.3393 272.326 71.3973L270.739 82.3836C269.763 86.1271 264.554 95.8113 255.114 111.436C237.862 140.001 215.767 175.035 188.83 216.539C163.684 255.113 146.024 280.26 135.852 291.978C127.958 301.174 121.813 305.935 117.419 306.261Z" fill="white"/>
<path d="M117.419 306.261V316.261H117.789L118.158 316.233L117.419 306.261ZM110.461 303.575L103.704 310.947L103.778 311.015L103.855 311.082L110.461 303.575ZM103.991 296.251L111.941 290.184L111.752 289.937L111.548 289.701L103.991 296.251ZM96.9111 288.316L89.2987 294.801L89.4125 294.934L89.5308 295.064L96.9111 288.316ZM97.8877 240.709L88.0635 238.842L88.0575 238.873L88.0518 238.905L97.8877 240.709ZM126.086 124.01L116.466 121.28L116.462 121.293L126.086 124.01ZM134.143 104.6L128.45 96.3785V96.3785L134.143 104.6ZM138.049 103.258L137.31 93.285L137.156 93.2964L137.002 93.3126L138.049 103.258ZM148.669 99.5955L144.608 90.4574L144.523 90.4948L144.44 90.5337L148.669 99.5955ZM153.063 98.0086V88.0086H152.51L151.959 88.0698L153.063 98.0086ZM150.5 119.005L160.254 121.207L160.256 121.199L160.258 121.191L150.5 119.005ZM140.856 156.236L131.231 153.524L131.226 153.542L131.221 153.56L140.856 156.236ZM130.603 196.763L140.358 198.96L140.361 198.946L130.603 196.763ZM122.424 234.239L132.204 236.325L132.206 236.317L132.207 236.309L122.424 234.239ZM121.447 267.442L117.508 276.634L119.727 277.585L122.135 277.419L121.447 267.442ZM140.368 246.568L148.385 252.545L148.515 252.372L148.637 252.192L140.368 246.568ZM226.062 114.61L234.523 119.94L234.524 119.938L226.062 114.61ZM251.452 76.8904L256.414 85.5729L256.62 85.4548L256.821 85.3271L251.452 76.8904ZM254.992 75.6697L256.636 85.5337L256.887 85.4918L257.136 85.4372L254.992 75.6697ZM267.565 71.2752L271.558 80.4436L272.056 80.2269L272.527 79.9576L267.565 71.2752ZM272.326 71.3973L282.223 72.8269L282.326 72.1158V71.3973H272.326ZM270.739 82.3836L280.415 84.9078L280.557 84.3667L280.637 83.8132L270.739 82.3836ZM255.114 111.436L246.555 106.265L246.554 106.266L255.114 111.436ZM188.83 216.539L197.207 222L197.213 221.991L197.218 221.983L188.83 216.539ZM135.852 291.978L128.3 285.423L128.282 285.444L128.264 285.465L135.852 291.978ZM117.419 296.261H116.809V316.261H117.419V296.261ZM116.809 296.261C116.944 296.261 117.08 296.275 117.208 296.301C117.335 296.328 117.424 296.36 117.47 296.38C117.56 296.418 117.419 296.378 117.067 296.068L103.855 311.082C107.271 314.089 111.647 316.261 116.809 316.261V296.261ZM117.218 296.203C115.851 294.95 114.092 293.003 111.941 290.184L96.0417 302.318C98.6102 305.683 101.165 308.62 103.704 310.947L117.218 296.203ZM111.548 289.701C109.364 287.182 106.944 284.47 104.291 281.569L89.5308 295.064C92.0863 297.859 94.3862 300.437 96.4343 302.8L111.548 289.701ZM104.524 281.832C105.204 282.631 104.946 282.856 104.614 281.183C104.32 279.698 104.104 277.416 104.104 274.156H84.1035C84.1035 278.139 84.3551 281.839 84.9964 285.073C85.6006 288.12 86.7463 291.805 89.2987 294.801L104.524 281.832ZM104.104 274.156C104.104 266.475 105.251 255.995 107.724 242.513L88.0518 238.905C85.4793 252.929 84.1035 264.748 84.1035 274.156H104.104ZM107.712 242.576C114.155 208.67 123.479 170.061 135.71 126.726L116.462 121.293C104.116 165.035 94.6414 204.226 88.0635 238.842L107.712 242.576ZM135.706 126.739C137.29 121.156 138.652 117.096 139.777 114.385C140.343 113.023 140.76 112.219 141.004 111.815C141.368 111.214 141.05 111.981 139.835 112.822L128.45 96.3785C126.177 97.9526 124.73 100.077 123.893 101.46C122.937 103.04 122.083 104.845 121.306 106.718C119.745 110.476 118.137 115.389 116.466 121.28L135.706 126.739ZM139.835 112.822C139.559 113.013 139.318 113.119 139.163 113.172C139.016 113.223 138.979 113.215 139.096 113.203L137.002 93.3126C134.133 93.6146 131.148 94.5111 128.45 96.3785L139.835 112.822ZM138.788 113.23C143.013 112.917 148.056 110.917 152.898 108.657L144.44 90.5337C142.19 91.5835 140.424 92.3069 139.092 92.7663C137.654 93.2622 137.157 93.2963 137.31 93.285L138.788 113.23ZM152.73 108.734C153.714 108.296 154.39 108.024 154.812 107.872C155.02 107.797 155.091 107.778 155.053 107.789C155.03 107.795 154.949 107.817 154.82 107.844C154.697 107.87 154.471 107.914 154.168 107.947L151.959 88.0698C150.347 88.2489 148.862 88.7566 148.019 89.0608C146.976 89.4375 145.821 89.918 144.608 90.4574L152.73 108.734ZM153.063 108.009C151.743 108.009 150.104 107.713 148.476 106.783C146.844 105.85 145.746 104.579 145.067 103.414C143.883 101.384 143.918 99.6299 143.918 99.4734H163.918C163.918 98.3404 163.811 95.8534 162.342 93.3361C160.39 89.9904 156.871 88.0086 153.063 88.0086V108.009ZM143.918 99.4734C143.918 100.982 143.097 106.304 140.742 116.819L160.258 121.191C162.46 111.361 163.918 103.661 163.918 99.4734H143.918ZM140.746 116.802C138.519 126.663 135.354 138.891 131.231 153.524L150.482 158.948C154.659 144.121 157.924 131.529 160.254 121.207L140.746 116.802ZM131.221 153.56C127.115 168.341 123.654 182.017 120.844 194.581L140.361 198.946C143.085 186.771 146.459 173.429 150.492 158.913L131.221 153.56ZM120.847 194.567C118.07 206.899 115.335 219.433 112.64 232.169L132.207 236.309C134.884 223.654 137.601 211.205 140.358 198.96L120.847 194.567ZM112.644 232.154C110.246 243.398 108.884 252.692 108.884 259.63H128.884C128.884 254.849 129.882 247.215 132.204 236.325L112.644 232.154ZM108.884 259.63C108.884 262.346 109.123 265.316 110.023 268.057C110.915 270.775 112.964 274.686 117.508 276.634L125.386 258.251C128.222 259.466 128.989 261.709 129.026 261.822C129.068 261.949 129.022 261.853 128.972 261.437C128.923 261.035 128.884 260.444 128.884 259.63H108.884ZM122.135 277.419C124.528 277.254 126.379 276.358 127.378 275.802C128.502 275.177 129.492 274.441 130.306 273.773C131.934 272.435 133.639 270.713 135.357 268.818C138.832 264.984 143.196 259.506 148.385 252.545L132.351 240.591C127.287 247.384 123.37 252.261 120.538 255.386C119.103 256.969 118.147 257.877 117.609 258.319C117.339 258.541 117.369 258.483 117.656 258.324C117.819 258.233 118.957 257.59 120.759 257.466L122.135 277.419ZM148.637 252.192C171.921 217.96 200.554 173.866 234.523 119.94L217.6 109.28C183.698 163.102 155.202 206.98 132.1 240.944L148.637 252.192ZM234.524 119.938C242.117 107.879 247.973 98.7952 252.118 92.6369C254.2 89.544 255.783 87.2907 256.901 85.8011C257.468 85.0458 257.827 84.6055 258.014 84.3923C258.523 83.8126 257.844 84.7556 256.414 85.5729L246.491 68.208C244.633 69.2694 243.316 70.819 242.975 71.2082C242.312 71.964 241.611 72.855 240.907 73.7934C239.482 75.6912 237.677 78.275 235.527 81.4687C231.209 87.8836 225.224 97.1719 217.599 109.282L234.524 119.938ZM256.821 85.3271C256.504 85.5287 256.293 85.6034 256.268 85.6118C256.244 85.62 256.353 85.5809 256.636 85.5337L253.348 65.8058C251.051 66.1887 248.468 66.9362 246.083 68.4538L256.821 85.3271ZM257.136 85.4372C261.371 84.5076 266.231 82.7636 271.558 80.4436L263.573 62.1069C258.809 64.1813 255.287 65.367 252.848 65.9023L257.136 85.4372ZM272.527 79.9576C272.809 79.7962 273.027 79.6814 273.186 79.603C273.348 79.5231 273.417 79.4969 273.403 79.5023C273.397 79.5047 273.236 79.5679 272.946 79.6361C272.671 79.7006 272.112 79.8104 271.35 79.8104V59.8104C269.157 59.8104 267.305 60.4165 266.183 60.8509C264.929 61.3363 263.716 61.9575 262.604 62.5928L272.527 79.9576ZM271.35 79.8104C270.137 79.8104 268.588 79.555 267.014 78.7025C265.419 77.8384 264.291 76.6275 263.565 75.4481C262.294 73.3824 262.326 71.569 262.326 71.3973H282.326C282.326 70.1676 282.195 67.5608 280.599 64.9661C278.512 61.5751 274.945 59.8104 271.35 59.8104V79.8104ZM262.429 69.9677L260.842 80.954L280.637 83.8132L282.223 72.8269L262.429 69.9677ZM261.063 79.8594C261.071 79.8283 261.026 80.0014 260.855 80.4397C260.693 80.8571 260.457 81.4119 260.131 82.1215C259.474 83.5466 258.54 85.4001 257.294 87.7178C254.803 92.3491 251.237 98.5158 246.555 106.265L263.673 116.607C268.432 108.732 272.19 102.244 274.908 97.191C277.437 92.4885 279.579 88.1151 280.415 84.9078L261.063 79.8594ZM246.554 106.266C229.377 134.706 207.345 169.643 180.442 211.095L197.218 221.983C224.189 180.427 246.346 145.296 263.674 116.606L246.554 106.266ZM180.453 211.078C155.246 249.744 137.948 274.308 128.3 285.423L143.403 298.534C154.1 286.211 172.121 260.482 197.207 222L180.453 211.078ZM128.264 285.465C124.542 289.801 121.528 292.736 119.198 294.541C116.64 296.523 115.924 296.344 116.68 296.288L118.158 316.233C123.308 315.852 127.862 313.129 131.448 310.351C135.262 307.395 139.268 303.352 143.439 298.492L128.264 285.465Z" fill="black" mask="url(#path-3-outside-1_230_17)"/>
</g>
<defs>
<filter id="filter0_d_230_17" x="94.1035" y="69.8104" width="188.223" height="246.45" filterUnits="userSpaceOnUse" color-interpolation-filters="sRGB">
<feFlood flood-opacity="0" result="BackgroundImageFix"/>
<feColorMatrix in="SourceAlpha" type="matrix" values="0 0 0 0 0 0 0 0 0 0 0 0 0 0 0 0 0 0 127 0" result="hardAlpha"/>
<feOffset dx="8" dy="8"/>
<feGaussianBlur stdDeviation="1"/>
<feComposite in2="hardAlpha" operator="out"/>
<feColorMatrix type="matrix" values="0 0 0 0 1 0 0 0 0 0 0 0 0 0 0 0 0 0 1 0"/>
<feBlend mode="normal" in2="BackgroundImageFix" result="effect1_dropShadow_230_17"/>
<feBlend mode="normal" in="SourceGraphic" in2="effect1_dropShadow_230_17" result="shape"/>
</filter>
</defs>
</svg>
