<svg width="378" height="378" viewBox="0 0 378 378" fill="none" xmlns="http://www.w3.org/2000/svg">
<rect width="378" height="378" rx="90" fill="white"/>
<g filter="url(#filter0_d_230_29)">
<mask id="path-2-outside-1_230_29" maskUnits="userSpaceOnUse" x="84" y="59" width="199" height="258" fill="black">
<rect fill="white" x="84" y="59" width="199" height="258"/>
<path d="M117.419 306.396H116.809C114.611 306.396 112.495 305.5 110.461 303.71C108.508 301.92 106.351 299.478 103.991 296.386C101.875 293.944 99.5153 291.299 96.9111 288.451C95.0394 286.254 94.1035 281.534 94.1035 274.291C94.1035 265.746 95.3649 254.597 97.8877 240.844C104.398 206.583 113.798 167.683 126.086 124.145C129.341 112.67 132.027 106.2 134.143 104.735C135.201 104.003 136.503 103.555 138.049 103.393C140.246 103.23 143.786 102.009 148.669 99.7305C150.866 98.7539 152.331 98.2249 153.063 98.1436C153.633 98.1436 153.918 98.6318 153.918 99.6084C153.918 102.457 152.779 108.967 150.5 119.14C148.221 129.231 145.007 141.641 140.856 156.371C136.787 171.02 133.369 184.529 130.603 196.898C127.836 209.187 125.109 221.679 122.424 234.374C120.064 245.442 118.884 253.905 118.884 259.765C118.884 264.241 119.738 266.845 121.447 267.577C123.807 267.414 130.114 260.456 140.368 246.703C163.562 212.605 192.126 168.619 226.062 114.745C241.28 90.5752 249.743 78.002 251.452 77.0254C252.347 76.4557 253.527 76.0488 254.992 75.8047C258.329 75.0723 262.52 73.6074 267.565 71.4102C269.274 70.4336 270.536 69.9453 271.35 69.9453C272.001 69.9453 272.326 70.4743 272.326 71.5322L270.739 82.5186C269.763 86.262 264.554 95.9463 255.114 111.571C237.862 140.136 215.767 175.17 188.83 216.674C163.684 255.248 146.024 280.395 135.852 292.113C127.958 301.309 121.813 306.07 117.419 306.396Z"/>
</mask>
<path d="M117.419 306.396H116.809C114.611 306.396 112.495 305.5 110.461 303.71C108.508 301.92 106.351 299.478 103.991 296.386C101.875 293.944 99.5153 291.299 96.9111 288.451C95.0394 286.254 94.1035 281.534 94.1035 274.291C94.1035 265.746 95.3649 254.597 97.8877 240.844C104.398 206.583 113.798 167.683 126.086 124.145C129.341 112.67 132.027 106.2 134.143 104.735C135.201 104.003 136.503 103.555 138.049 103.393C140.246 103.23 143.786 102.009 148.669 99.7305C150.866 98.7539 152.331 98.2249 153.063 98.1436C153.633 98.1436 153.918 98.6318 153.918 99.6084C153.918 102.457 152.779 108.967 150.5 119.14C148.221 129.231 145.007 141.641 140.856 156.371C136.787 171.02 133.369 184.529 130.603 196.898C127.836 209.187 125.109 221.679 122.424 234.374C120.064 245.442 118.884 253.905 118.884 259.765C118.884 264.241 119.738 266.845 121.447 267.577C123.807 267.414 130.114 260.456 140.368 246.703C163.562 212.605 192.126 168.619 226.062 114.745C241.28 90.5752 249.743 78.002 251.452 77.0254C252.347 76.4557 253.527 76.0488 254.992 75.8047C258.329 75.0723 262.52 73.6074 267.565 71.4102C269.274 70.4336 270.536 69.9453 271.35 69.9453C272.001 69.9453 272.326 70.4743 272.326 71.5322L270.739 82.5186C269.763 86.262 264.554 95.9463 255.114 111.571C237.862 140.136 215.767 175.17 188.83 216.674C163.684 255.248 146.024 280.395 135.852 292.113C127.958 301.309 121.813 306.07 117.419 306.396Z" fill="white"/>
<path d="M117.419 306.396V316.396H117.789L118.158 316.368L117.419 306.396ZM110.461 303.71L103.704 311.082L103.778 311.15L103.855 311.217L110.461 303.71ZM103.991 296.386L111.941 290.319L111.752 290.072L111.548 289.836L103.991 296.386ZM96.9111 288.451L89.2987 294.936L89.4125 295.069L89.5308 295.199L96.9111 288.451ZM97.8877 240.844L88.0635 238.977L88.0575 239.008L88.0518 239.04L97.8877 240.844ZM126.086 124.145L116.466 121.415L116.462 121.428L126.086 124.145ZM134.143 104.735L128.45 96.5134V96.5134L134.143 104.735ZM138.049 103.393L137.31 93.4199L137.156 93.4313L137.002 93.4475L138.049 103.393ZM148.669 99.7305L144.608 90.5924L144.523 90.6297L144.44 90.6686L148.669 99.7305ZM153.063 98.1436V88.1436H152.51L151.959 88.2047L153.063 98.1436ZM150.5 119.14L160.254 121.342L160.256 121.334L160.258 121.325L150.5 119.14ZM140.856 156.371L131.231 153.659L131.226 153.677L131.221 153.695L140.856 156.371ZM130.603 196.898L140.358 199.095L140.361 199.081L130.603 196.898ZM122.424 234.374L132.204 236.459L132.206 236.452L132.207 236.444L122.424 234.374ZM121.447 267.577L117.508 276.769L119.727 277.72L122.135 277.553L121.447 267.577ZM140.368 246.703L148.385 252.68L148.515 252.507L148.637 252.327L140.368 246.703ZM226.062 114.745L234.523 120.075L234.524 120.073L226.062 114.745ZM251.452 77.0254L256.414 85.7078L256.62 85.5898L256.821 85.462L251.452 77.0254ZM254.992 75.8047L256.636 85.6686L256.887 85.6267L257.136 85.5721L254.992 75.8047ZM267.565 71.4102L271.558 80.5785L272.056 80.3618L272.527 80.0926L267.565 71.4102ZM272.326 71.5322L282.223 72.9618L282.326 72.2507V71.5322H272.326ZM270.739 82.5186L280.415 85.0428L280.557 84.5017L280.637 83.9482L270.739 82.5186ZM255.114 111.571L246.555 106.4L246.554 106.401L255.114 111.571ZM188.83 216.674L197.207 222.135L197.213 222.126L197.218 222.118L188.83 216.674ZM135.852 292.113L128.3 285.558L128.282 285.579L128.264 285.6L135.852 292.113ZM117.419 296.396H116.809V316.396H117.419V296.396ZM116.809 296.396C116.944 296.396 117.08 296.41 117.208 296.436C117.335 296.463 117.424 296.495 117.47 296.514C117.56 296.553 117.419 296.513 117.067 296.203L103.855 311.217C107.271 314.224 111.647 316.396 116.809 316.396V296.396ZM117.218 296.338C115.851 295.085 114.092 293.138 111.941 290.319L96.0417 302.452C98.6102 305.818 101.165 308.754 103.704 311.082L117.218 296.338ZM111.548 289.836C109.364 287.317 106.944 284.605 104.291 281.703L89.5308 295.199C92.0863 297.994 94.3862 300.572 96.4343 302.935L111.548 289.836ZM104.524 281.967C105.204 282.766 104.946 282.991 104.614 281.318C104.32 279.833 104.104 277.551 104.104 274.291H84.1035C84.1035 278.273 84.3551 281.974 84.9964 285.208C85.6006 288.255 86.7463 291.939 89.2987 294.936L104.524 281.967ZM104.104 274.291C104.104 266.61 105.251 256.13 107.724 242.648L88.0518 239.04C85.4793 253.064 84.1035 264.883 84.1035 274.291H104.104ZM107.712 242.711C114.155 208.805 123.479 170.196 135.71 126.861L116.462 121.428C104.116 165.169 94.6414 204.361 88.0635 238.977L107.712 242.711ZM135.706 126.874C137.29 121.291 138.652 117.231 139.777 114.52C140.343 113.158 140.76 112.354 141.004 111.95C141.368 111.349 141.05 112.116 139.835 112.957L128.45 96.5134C126.177 98.0876 124.73 100.212 123.893 101.595C122.937 103.175 122.083 104.98 121.306 106.853C119.745 110.611 118.137 115.524 116.466 121.415L135.706 126.874ZM139.835 112.957C139.559 113.148 139.318 113.254 139.163 113.307C139.016 113.358 138.979 113.35 139.096 113.338L137.002 93.4475C134.133 93.7495 131.148 94.6461 128.45 96.5134L139.835 112.957ZM138.788 113.365C143.013 113.052 148.056 111.052 152.898 108.792L144.44 90.6686C142.19 91.7185 140.424 92.4419 139.092 92.9012C137.654 93.3971 137.157 93.4312 137.31 93.4199L138.788 113.365ZM152.73 108.869C153.714 108.431 154.39 108.159 154.812 108.007C155.02 107.932 155.091 107.913 155.053 107.924C155.03 107.93 154.949 107.952 154.82 107.979C154.697 108.005 154.471 108.049 154.168 108.082L151.959 88.2047C150.347 88.3839 148.862 88.8915 148.019 89.1958C146.976 89.5725 145.821 90.053 144.608 90.5924L152.73 108.869ZM153.063 108.144C151.743 108.144 150.104 107.848 148.476 106.918C146.844 105.985 145.746 104.714 145.067 103.548C143.883 101.519 143.918 99.7649 143.918 99.6084H163.918C163.918 98.4754 163.811 95.9884 162.342 93.4711C160.39 90.1254 156.871 88.1436 153.063 88.1436V108.144ZM143.918 99.6084C143.918 101.117 143.097 106.439 140.742 116.954L160.258 121.325C162.46 111.496 163.918 103.796 163.918 99.6084H143.918ZM140.746 116.937C138.519 126.798 135.354 139.026 131.231 153.659L150.482 159.083C154.659 144.256 157.924 131.664 160.254 121.342L140.746 116.937ZM131.221 153.695C127.115 168.476 123.654 182.152 120.844 194.716L140.361 199.081C143.085 186.906 146.459 173.564 150.492 159.048L131.221 153.695ZM120.847 194.702C118.07 207.034 115.335 219.568 112.64 232.304L132.207 236.444C134.884 223.789 137.601 211.34 140.358 199.095L120.847 194.702ZM112.644 232.289C110.246 243.533 108.884 252.827 108.884 259.765H128.884C128.884 254.984 129.882 247.35 132.204 236.459L112.644 232.289ZM108.884 259.765C108.884 262.481 109.123 265.45 110.023 268.192C110.915 270.91 112.964 274.821 117.508 276.769L125.386 258.386C128.222 259.601 128.989 261.844 129.026 261.957C129.068 262.084 129.022 261.988 128.972 261.572C128.923 261.17 128.884 260.579 128.884 259.765H108.884ZM122.135 277.553C124.528 277.388 126.379 276.492 127.378 275.937C128.502 275.312 129.492 274.576 130.306 273.908C131.934 272.57 133.639 270.848 135.357 268.953C138.832 265.119 143.196 259.641 148.385 252.68L132.351 240.726C127.287 247.519 123.37 252.396 120.538 255.521C119.103 257.104 118.147 258.012 117.609 258.454C117.339 258.676 117.369 258.618 117.656 258.459C117.819 258.368 118.957 257.725 120.759 257.601L122.135 277.553ZM148.637 252.327C171.921 218.095 200.554 174.001 234.523 120.075L217.6 109.415C183.698 163.237 155.202 207.115 132.1 241.079L148.637 252.327ZM234.524 120.073C242.117 108.014 247.973 98.9301 252.118 92.7719C254.2 89.679 255.783 87.4257 256.901 85.936C257.468 85.1807 257.827 84.7404 258.014 84.5272C258.523 83.9475 257.844 84.8906 256.414 85.7078L246.491 68.343C244.633 69.4043 243.316 70.9539 242.975 71.3432C242.312 72.0989 241.611 72.9899 240.907 73.9283C239.482 75.8261 237.677 78.4099 235.527 81.6036C231.209 88.0186 225.224 97.3068 217.599 109.417L234.524 120.073ZM256.821 85.462C256.504 85.6637 256.293 85.7384 256.268 85.7467C256.244 85.755 256.353 85.7158 256.636 85.6686L253.348 65.9407C251.051 66.3236 248.468 67.0712 246.083 68.5888L256.821 85.462ZM257.136 85.5721C261.371 84.6426 266.231 82.8986 271.558 80.5785L263.573 62.2418C258.809 64.3163 255.287 65.502 252.848 66.0372L257.136 85.5721ZM272.527 80.0926C272.809 79.9312 273.027 79.8163 273.186 79.738C273.348 79.6581 273.417 79.6319 273.403 79.6372C273.397 79.6396 273.236 79.7029 272.946 79.771C272.671 79.8356 272.112 79.9453 271.35 79.9453V59.9453C269.157 59.9453 267.305 60.5515 266.183 60.9858C264.929 61.4713 263.716 62.0924 262.604 62.7277L272.527 80.0926ZM271.35 79.9453C270.137 79.9453 268.588 79.69 267.014 78.8374C265.419 77.9733 264.291 76.7625 263.565 75.583C262.294 73.5173 262.326 71.704 262.326 71.5322H282.326C282.326 70.3025 282.195 67.6957 280.599 65.1011C278.512 61.7101 274.945 59.9453 271.35 59.9453V79.9453ZM262.429 70.1026L260.842 81.0889L280.637 83.9482L282.223 72.9618L262.429 70.1026ZM261.063 79.9943C261.071 79.9633 261.026 80.1363 260.855 80.5746C260.693 80.992 260.457 81.5469 260.131 82.2565C259.474 83.6816 258.54 85.535 257.294 87.8528C254.803 92.4841 251.237 98.6507 246.555 106.4L263.673 116.742C268.432 108.867 272.19 102.379 274.908 97.3259C277.437 92.6235 279.579 88.2501 280.415 85.0428L261.063 79.9943ZM246.554 106.401C229.377 134.841 207.345 169.778 180.442 211.23L197.218 222.118C224.189 180.562 246.346 145.43 263.674 116.741L246.554 106.401ZM180.453 211.213C155.246 249.879 137.948 274.443 128.3 285.558L143.403 298.669C154.1 286.346 172.121 260.617 197.207 222.135L180.453 211.213ZM128.264 285.6C124.542 289.936 121.528 292.871 119.198 294.676C116.64 296.658 115.924 296.479 116.68 296.423L118.158 316.368C123.308 315.987 127.862 313.264 131.448 310.486C135.262 307.53 139.268 303.487 143.439 298.627L128.264 285.6Z" fill="black" mask="url(#path-2-outside-1_230_29)"/>
</g>
<defs>
<filter id="filter0_d_230_29" x="94.1035" y="69.9453" width="188.223" height="246.45" filterUnits="userSpaceOnUse" color-interpolation-filters="sRGB">
<feFlood flood-opacity="0" result="BackgroundImageFix"/>
<feColorMatrix in="SourceAlpha" type="matrix" values="0 0 0 0 0 0 0 0 0 0 0 0 0 0 0 0 0 0 127 0" result="hardAlpha"/>
<feOffset dx="8" dy="8"/>
<feGaussianBlur stdDeviation="1"/>
<feComposite in2="hardAlpha" operator="out"/>
<feColorMatrix type="matrix" values="0 0 0 0 1 0 0 0 0 0 0 0 0 0 0 0 0 0 1 0"/>
<feBlend mode="normal" in2="BackgroundImageFix" result="effect1_dropShadow_230_29"/>
<feBlend mode="normal" in="SourceGraphic" in2="effect1_dropShadow_230_29" result="shape"/>
</filter>
</defs>
</svg>
