<svg width="739" height="378" viewBox="0 0 739 378" fill="none" xmlns="http://www.w3.org/2000/svg">
<path d="M509.1 225L486.2 155H503L522.9 217H514.5L535.3 155H550.3L570.3 217H562.2L582.6 155H598.1L575.2 225H557.8L540.1 170.6H544.7L526.5 225H509.1ZM607.144 225V155H623.344V225H607.144ZM654.456 209L653.556 190.3L687.056 155H705.056L674.856 187.5L665.856 197.1L654.456 209ZM639.956 225V155H656.056V225H639.956ZM687.856 225L662.956 194.5L673.556 183L706.756 225H687.856ZM713.98 225V155H730.18V225H713.98Z" fill="white"/>
<line x1="440.5" y1="98" x2="440.5" y2="279" stroke="white" stroke-width="5"/>
<rect x="1.5" y="1.5" width="375" height="375" rx="88.5" fill="black" stroke="white" stroke-width="3"/>
<g filter="url(#filter0_d_230_34)">
<mask id="path-4-outside-1_230_34" maskUnits="userSpaceOnUse" x="89" y="64" width="189" height="248" fill="black">
<rect fill="white" x="89" y="64" width="189" height="248"/>
<path d="M117.419 306.396H116.809C114.611 306.396 112.495 305.5 110.461 303.71C108.508 301.92 106.351 299.478 103.991 296.386C101.875 293.944 99.5153 291.299 96.9111 288.451C95.0394 286.254 94.1035 281.534 94.1035 274.291C94.1035 265.746 95.3649 254.597 97.8877 240.844C104.398 206.583 113.798 167.683 126.086 124.145C129.341 112.67 132.027 106.2 134.143 104.735C135.201 104.003 136.503 103.555 138.049 103.393C140.246 103.23 143.786 102.009 148.669 99.7305C150.866 98.7539 152.331 98.2249 153.063 98.1436C153.633 98.1436 153.918 98.6318 153.918 99.6084C153.918 102.457 152.779 108.967 150.5 119.14C148.221 129.231 145.007 141.641 140.856 156.371C136.787 171.02 133.369 184.529 130.603 196.898C127.836 209.187 125.109 221.679 122.424 234.374C120.064 245.442 118.884 253.905 118.884 259.765C118.884 264.241 119.738 266.845 121.447 267.577C123.807 267.414 130.114 260.456 140.368 246.703C163.562 212.605 192.126 168.619 226.062 114.745C241.28 90.5752 249.743 78.002 251.452 77.0254C252.347 76.4557 253.527 76.0488 254.992 75.8047C258.329 75.0723 262.52 73.6074 267.565 71.4102C269.274 70.4336 270.536 69.9453 271.35 69.9453C272.001 69.9453 272.326 70.4743 272.326 71.5322L270.739 82.5186C269.763 86.262 264.554 95.9463 255.114 111.571C237.862 140.136 215.767 175.17 188.83 216.674C163.684 255.248 146.024 280.395 135.852 292.113C127.958 301.309 121.813 306.07 117.419 306.396Z"/>
</mask>
<path d="M117.419 306.396H116.809C114.611 306.396 112.495 305.5 110.461 303.71C108.508 301.92 106.351 299.478 103.991 296.386C101.875 293.944 99.5153 291.299 96.9111 288.451C95.0394 286.254 94.1035 281.534 94.1035 274.291C94.1035 265.746 95.3649 254.597 97.8877 240.844C104.398 206.583 113.798 167.683 126.086 124.145C129.341 112.67 132.027 106.2 134.143 104.735C135.201 104.003 136.503 103.555 138.049 103.393C140.246 103.23 143.786 102.009 148.669 99.7305C150.866 98.7539 152.331 98.2249 153.063 98.1436C153.633 98.1436 153.918 98.6318 153.918 99.6084C153.918 102.457 152.779 108.967 150.5 119.14C148.221 129.231 145.007 141.641 140.856 156.371C136.787 171.02 133.369 184.529 130.603 196.898C127.836 209.187 125.109 221.679 122.424 234.374C120.064 245.442 118.884 253.905 118.884 259.765C118.884 264.241 119.738 266.845 121.447 267.577C123.807 267.414 130.114 260.456 140.368 246.703C163.562 212.605 192.126 168.619 226.062 114.745C241.28 90.5752 249.743 78.002 251.452 77.0254C252.347 76.4557 253.527 76.0488 254.992 75.8047C258.329 75.0723 262.52 73.6074 267.565 71.4102C269.274 70.4336 270.536 69.9453 271.35 69.9453C272.001 69.9453 272.326 70.4743 272.326 71.5322L270.739 82.5186C269.763 86.262 264.554 95.9463 255.114 111.571C237.862 140.136 215.767 175.17 188.83 216.674C163.684 255.248 146.024 280.395 135.852 292.113C127.958 301.309 121.813 306.07 117.419 306.396Z" fill="white"/>
<path d="M117.419 306.396V311.396H117.604L117.788 311.382L117.419 306.396ZM110.461 303.71L107.082 307.396L107.12 307.43L107.158 307.464L110.461 303.71ZM103.991 296.386L107.966 293.352L107.872 293.229L107.77 293.111L103.991 296.386ZM96.9111 288.451L93.1049 291.694L93.1618 291.76L93.221 291.825L96.9111 288.451ZM97.8877 240.844L92.9756 239.91L92.9726 239.926L92.9697 239.942L97.8877 240.844ZM126.086 124.145L121.276 122.78L121.274 122.786L126.086 124.145ZM134.143 104.735L131.297 100.624L131.297 100.624L134.143 104.735ZM138.049 103.393L137.679 98.4062L137.602 98.412L137.525 98.4201L138.049 103.393ZM148.669 99.7305L146.638 95.1614L146.596 95.1801L146.555 95.1996L148.669 99.7305ZM153.063 98.1436V93.1436H152.787L152.511 93.1741L153.063 98.1436ZM150.5 119.14L155.377 120.241L155.379 120.233L150.5 119.14ZM140.856 156.371L136.044 155.015L136.041 155.024L136.039 155.033L140.856 156.371ZM130.603 196.898L135.48 197.997L135.482 197.99L130.603 196.898ZM122.424 234.374L127.314 235.417L127.316 235.409L122.424 234.374ZM121.447 267.577L119.478 272.173L120.587 272.648L121.791 272.565L121.447 267.577ZM140.368 246.703L144.377 249.692L144.441 249.605L144.502 249.515L140.368 246.703ZM226.062 114.745L230.292 117.41L230.293 117.409L226.062 114.745ZM251.452 77.0254L253.933 81.3666L254.036 81.3076L254.137 81.2437L251.452 77.0254ZM254.992 75.8047L255.814 80.7367L255.94 80.7157L256.064 80.6884L254.992 75.8047ZM267.565 71.4102L269.562 75.9943L269.811 75.886L270.046 75.7514L267.565 71.4102ZM272.326 71.5322L277.275 72.247L277.326 71.8915V71.5322H272.326ZM270.739 82.5186L275.577 83.7807L275.648 83.5101L275.688 83.2334L270.739 82.5186ZM255.114 111.571L250.835 108.986L250.834 108.986L255.114 111.571ZM188.83 216.674L193.019 219.404L193.024 219.396L188.83 216.674ZM135.852 292.113L132.076 288.836L132.067 288.846L132.058 288.857L135.852 292.113ZM117.419 301.396H116.809V311.396H117.419V301.396ZM116.809 301.396C116.093 301.396 115.108 301.139 113.764 299.956L107.158 307.464C109.883 309.862 113.129 311.396 116.809 311.396V301.396ZM113.84 300.024C112.179 298.502 110.222 296.308 107.966 293.352L100.016 299.419C102.481 302.648 104.836 305.337 107.082 307.396L113.84 300.024ZM107.77 293.111C105.62 290.631 103.23 287.952 100.601 285.077L93.221 291.825C95.8008 294.647 98.1308 297.258 100.213 299.66L107.77 293.111ZM100.717 285.209C100.59 285.059 100.11 284.307 99.7099 282.291C99.3287 280.368 99.1035 277.732 99.1035 274.291H89.1035C89.1035 278.093 89.3463 281.438 89.9009 284.236C90.437 286.939 91.3608 289.646 93.1049 291.694L100.717 285.209ZM99.1035 274.291C99.1035 266.178 100.308 255.363 102.806 241.746L92.9697 239.942C90.4221 253.831 89.1035 265.314 89.1035 274.291H99.1035ZM102.8 241.777C109.276 207.694 118.638 168.94 130.898 125.503L121.274 122.786C108.957 166.426 99.5198 205.472 92.9756 239.91L102.8 241.777ZM130.896 125.509C132.502 119.849 133.925 115.576 135.159 112.603C135.778 111.113 136.304 110.059 136.727 109.361C137.208 108.565 137.332 108.609 136.989 108.846L131.297 100.624C129.895 101.595 128.89 102.996 128.171 104.184C127.393 105.47 126.648 107.024 125.924 108.769C124.472 112.266 122.925 116.966 121.276 122.78L130.896 125.509ZM136.989 108.846C137.227 108.681 137.687 108.458 138.572 108.365L137.525 98.4201C135.318 98.6524 133.174 99.3245 131.297 100.624L136.989 108.846ZM138.418 108.379C141.63 108.141 145.921 106.53 150.783 104.261L146.555 95.1996C141.651 97.4878 138.862 98.3186 137.679 98.4062L138.418 108.379ZM150.7 104.3C151.741 103.837 152.537 103.512 153.114 103.304C153.401 103.2 153.596 103.139 153.715 103.106C153.855 103.067 153.801 103.092 153.616 103.113L152.511 93.1741C151.522 93.2841 150.505 93.6142 149.717 93.8985C148.83 94.2191 147.794 94.6476 146.638 95.1614L150.7 104.3ZM153.063 103.144C152.474 103.144 151.717 103.011 150.957 102.576C150.194 102.141 149.69 101.551 149.385 101.029C148.865 100.137 148.918 99.4425 148.918 99.6084H158.918C158.918 98.7977 158.829 97.3711 158.023 95.9904C156.976 94.1955 155.11 93.1436 153.063 93.1436V103.144ZM148.918 99.6084C148.918 101.787 147.938 107.703 145.621 118.047L155.379 120.233C157.619 110.231 158.918 103.127 158.918 99.6084H148.918ZM145.623 118.038C143.37 128.014 140.181 140.334 136.044 155.015L145.669 157.727C149.833 142.949 153.073 130.447 155.377 120.241L145.623 118.038ZM136.039 155.033C131.951 169.748 128.512 183.34 125.723 195.807L135.482 197.99C138.227 185.717 141.623 172.292 145.674 157.709L136.039 155.033ZM125.725 195.8C122.953 208.11 120.222 220.623 117.532 233.339L127.316 235.409C129.997 222.734 132.718 210.263 135.48 197.997L125.725 195.8ZM117.534 233.331C115.155 244.487 113.884 253.366 113.884 259.765H123.884C123.884 254.445 124.973 246.396 127.314 235.417L117.534 233.331ZM113.884 259.765C113.884 262.242 114.11 264.612 114.774 266.634C115.433 268.643 116.778 271.016 119.478 272.173L123.417 262.981C124.407 263.406 124.47 264.11 124.275 263.516C124.084 262.934 123.884 261.764 123.884 259.765H113.884ZM121.791 272.565C123.135 272.473 124.239 271.961 124.948 271.567C125.719 271.138 126.454 270.601 127.131 270.044C128.487 268.93 130.005 267.412 131.652 265.595C134.966 261.938 139.218 256.61 144.377 249.692L136.36 243.715C131.264 250.549 127.236 255.577 124.243 258.879C122.737 260.54 121.594 261.651 120.783 262.318C120.377 262.651 120.152 262.792 120.087 262.828C119.959 262.899 120.35 262.641 121.103 262.589L121.791 272.565ZM144.502 249.515C167.741 215.35 196.34 171.31 230.292 117.41L221.831 112.08C187.912 165.928 159.382 209.86 136.234 243.891L144.502 249.515ZM230.293 117.409C237.894 105.337 243.782 96.2023 247.971 89.9798C250.069 86.8617 251.708 84.5258 252.902 82.9341C253.504 82.133 253.949 81.58 254.254 81.2312C254.721 80.6991 254.541 81.019 253.933 81.3666L248.971 72.6842C247.936 73.2759 247.118 74.2023 246.735 74.6392C246.191 75.2593 245.576 76.0376 244.905 76.9303C243.557 78.726 241.808 81.2272 239.675 84.3957C235.4 90.7465 229.447 99.9835 221.83 112.081L230.293 117.409ZM254.137 81.2437C254.287 81.148 254.766 80.9114 255.814 80.7367L254.17 70.8727C252.289 71.1862 250.408 71.7635 248.768 72.8071L254.137 81.2437ZM256.064 80.6884C259.85 79.8574 264.375 78.253 269.562 75.9943L265.569 66.826C260.664 68.9619 256.808 70.2871 253.92 70.921L256.064 80.6884ZM270.046 75.7514C270.772 75.3366 271.279 75.0979 271.598 74.9744C271.753 74.9145 271.816 74.9004 271.801 74.904C271.793 74.9057 271.629 74.9453 271.35 74.9453V64.9453C270.05 64.9453 268.865 65.3094 267.988 65.6487C267.046 66.0135 266.068 66.5071 265.085 67.0689L270.046 75.7514ZM271.35 74.9453C270.824 74.9453 270.121 74.8342 269.395 74.441C268.659 74.042 268.146 73.4861 267.824 72.9625C267.27 72.0619 267.326 71.3536 267.326 71.5322H277.326C277.326 70.6529 277.22 69.1511 276.34 67.7216C275.216 65.8938 273.31 64.9453 271.35 64.9453V74.9453ZM267.378 70.8174L265.791 81.8038L275.688 83.2334L277.275 72.247L267.378 70.8174ZM265.901 81.2564C265.587 82.4604 264.339 85.3091 261.697 90.2211C259.15 94.9578 255.536 101.205 250.835 108.986L259.394 114.157C264.133 106.313 267.843 99.9052 270.504 94.9576C273.071 90.1854 274.915 86.3202 275.577 83.7807L265.901 81.2564ZM250.834 108.986C233.619 137.488 211.556 172.474 184.636 213.952L193.024 219.396C219.978 177.866 242.104 142.783 259.394 114.156L250.834 108.986ZM184.641 213.943C159.465 252.564 141.986 277.419 132.076 288.836L139.627 295.391C150.062 283.37 167.902 257.932 193.019 219.404L184.641 213.943ZM132.058 288.857C128.223 293.324 124.961 296.536 122.261 298.628C119.445 300.81 117.77 301.356 117.05 301.409L117.788 311.382C121.462 311.11 125.056 309.113 128.385 306.533C131.829 303.865 135.586 300.099 139.645 295.37L132.058 288.857Z" fill="black" mask="url(#path-4-outside-1_230_34)"/>
</g>
<defs>
<filter id="filter0_d_230_34" x="94.1035" y="69.9453" width="188.223" height="246.45" filterUnits="userSpaceOnUse" color-interpolation-filters="sRGB">
<feFlood flood-opacity="0" result="BackgroundImageFix"/>
<feColorMatrix in="SourceAlpha" type="matrix" values="0 0 0 0 0 0 0 0 0 0 0 0 0 0 0 0 0 0 127 0" result="hardAlpha"/>
<feOffset dx="8" dy="8"/>
<feGaussianBlur stdDeviation="1"/>
<feComposite in2="hardAlpha" operator="out"/>
<feColorMatrix type="matrix" values="0 0 0 0 1 0 0 0 0 0 0 0 0 0 0 0 0 0 1 0"/>
<feBlend mode="normal" in2="BackgroundImageFix" result="effect1_dropShadow_230_34"/>
<feBlend mode="normal" in="SourceGraphic" in2="effect1_dropShadow_230_34" result="shape"/>
</filter>
</defs>
</svg>
